<svg width="700" height="700" viewBox="0 0 700 700" fill="none" xmlns="http://www.w3.org/2000/svg">
<g filter="url(#filter0_f_7_16)">
<mask id="path-1-inside-1_7_16" fill="white">
<path fill-rule="evenodd" clip-rule="evenodd" d="M350 626C502.431 626 626 502.431 626 350C626 197.569 502.431 74 350 74C197.569 74 74 197.569 74 350C74 502.431 197.569 626 350 626ZM350 593.729C484.608 593.729 593.729 484.608 593.729 350C593.729 215.392 484.608 106.271 350 106.271C215.392 106.271 106.271 215.392 106.271 350C106.271 484.608 215.392 593.729 350 593.729Z"/>
</mask>
<path fill-rule="evenodd" clip-rule="evenodd" d="M350 626C502.431 626 626 502.431 626 350C626 197.569 502.431 74 350 74C197.569 74 74 197.569 74 350C74 502.431 197.569 626 350 626ZM350 593.729C484.608 593.729 593.729 484.608 593.729 350C593.729 215.392 484.608 106.271 350 106.271C215.392 106.271 106.271 215.392 106.271 350C106.271 484.608 215.392 593.729 350 593.729Z" fill="white" fill-opacity="0.21"/>
<path d="M625.151 350C625.151 501.962 501.962 625.151 350 625.151V626.849C502.9 626.849 626.849 502.9 626.849 350H625.151ZM350 74.8492C501.962 74.8492 625.151 198.038 625.151 350H626.849C626.849 197.1 502.9 73.1508 350 73.1508V74.8492ZM74.8492 350C74.8492 198.038 198.038 74.8492 350 74.8492V73.1508C197.1 73.1508 73.1508 197.1 73.1508 350H74.8492ZM350 625.151C198.038 625.151 74.8492 501.962 74.8492 350H73.1508C73.1508 502.9 197.1 626.849 350 626.849V625.151ZM592.88 350C592.88 484.139 484.139 592.88 350 592.88V594.578C485.077 594.578 594.578 485.077 594.578 350H592.88ZM350 107.12C484.139 107.12 592.88 215.861 592.88 350H594.578C594.578 214.923 485.077 105.422 350 105.422V107.12ZM107.12 350C107.12 215.861 215.861 107.12 350 107.12V105.422C214.923 105.422 105.422 214.923 105.422 350H107.12ZM350 592.88C215.861 592.88 107.12 484.139 107.12 350H105.422C105.422 485.077 214.923 594.578 350 594.578V592.88Z" fill="black" mask="url(#path-1-inside-1_7_16)"/>
</g>
<defs>
<filter id="filter0_f_7_16" x="34.6052" y="34.6052" width="630.79" height="630.79" filterUnits="userSpaceOnUse" color-interpolation-filters="sRGB">
<feFlood flood-opacity="0" result="BackgroundImageFix"/>
<feBlend mode="normal" in="SourceGraphic" in2="BackgroundImageFix" result="shape"/>
<feGaussianBlur stdDeviation="19.6974" result="effect1_foregroundBlur_7_16"/>
</filter>
</defs>
</svg>
