<svg width="700" height="700" viewBox="0 0 700 700" fill="none" xmlns="http://www.w3.org/2000/svg">
<g filter="url(#filter0_f_7_16)">
<mask id="path-1-inside-1_7_16" fill="white">
<path fill-rule="evenodd" clip-rule="evenodd" d="M349.5 583C477.906 583 582 478.906 582 350.5C582 222.094 477.906 118 349.5 118C221.094 118 117 222.094 117 350.5C117 478.906 221.094 583 349.5 583ZM349.5 555.815C462.893 555.815 554.815 463.893 554.815 350.5C554.815 237.107 462.893 145.185 349.5 145.185C236.107 145.185 144.185 237.107 144.185 350.5C144.185 463.893 236.107 555.815 349.5 555.815Z"/>
</mask>
<path fill-rule="evenodd" clip-rule="evenodd" d="M349.5 583C477.906 583 582 478.906 582 350.5C582 222.094 477.906 118 349.5 118C221.094 118 117 222.094 117 350.5C117 478.906 221.094 583 349.5 583ZM349.5 555.815C462.893 555.815 554.815 463.893 554.815 350.5C554.815 237.107 462.893 145.185 349.5 145.185C236.107 145.185 144.185 237.107 144.185 350.5C144.185 463.893 236.107 555.815 349.5 555.815Z" fill="white" fill-opacity="0.21"/>
<path d="M581.285 350.5C581.285 478.511 477.511 582.285 349.5 582.285V583.715C478.301 583.715 582.715 479.301 582.715 350.5H581.285ZM349.5 118.715C477.511 118.715 581.285 222.489 581.285 350.5H582.715C582.715 221.699 478.301 117.285 349.5 117.285V118.715ZM117.715 350.5C117.715 222.489 221.489 118.715 349.5 118.715V117.285C220.699 117.285 116.285 221.699 116.285 350.5H117.715ZM349.5 582.285C221.489 582.285 117.715 478.511 117.715 350.5H116.285C116.285 479.301 220.699 583.715 349.5 583.715V582.285ZM554.1 350.5C554.1 463.497 462.497 555.1 349.5 555.1V556.531C463.288 556.531 555.531 464.288 555.531 350.5H554.1ZM349.5 145.9C462.497 145.9 554.1 237.503 554.1 350.5H555.531C555.531 236.712 463.288 144.469 349.5 144.469V145.9ZM144.9 350.5C144.9 237.503 236.503 145.9 349.5 145.9V144.469C235.712 144.469 143.469 236.712 143.469 350.5H144.9ZM349.5 555.1C236.503 555.1 144.9 463.497 144.9 350.5H143.469C143.469 464.288 235.712 556.531 349.5 556.531V555.1Z" fill="black" mask="url(#path-1-inside-1_7_16)"/>
</g>
<defs>
<filter id="filter0_f_7_16" x="12.2065" y="13.2065" width="674.587" height="674.587" filterUnits="userSpaceOnUse" color-interpolation-filters="sRGB">
<feFlood flood-opacity="0" result="BackgroundImageFix"/>
<feBlend mode="normal" in="SourceGraphic" in2="BackgroundImageFix" result="shape"/>
<feGaussianBlur stdDeviation="52.3967" result="effect1_foregroundBlur_7_16"/>
</filter>
</defs>
</svg>
